<?xml version="1.0" standalone="no"?>
<!DOCTYPE svg PUBLIC "-//W3C//DTD SVG 20010904//EN"
 "http://www.w3.org/TR/2001/REC-SVG-20010904/DTD/svg10.dtd">
<svg version="1.0" xmlns="http://www.w3.org/2000/svg"
 width="300.000000pt" height="300.000000pt" viewBox="0 0 300.000000 300.000000"
 preserveAspectRatio="xMidYMid meet">
<metadata>
Created by potrace 1.10, written by Peter Selinger 2001-2011
</metadata>
<g transform="translate(0.000000,300.000000) scale(0.100000,-0.100000)"
fill="#000000" stroke="none">
<path d="M1440 2467 c-3 -3 -30 -7 -60 -8 -99 -3 -232 -45 -245 -77 -4 -10 0
-12 12 -7 39 15 212 46 293 52 147 10 319 -21 448 -82 248 -117 448 -317 536
-535 54 -133 70 -230 63 -390 -8 -184 -37 -296 -122 -458 -57 -109 -113 -185
-215 -288 -44 -44 -80 -84 -80 -88 0 -12 54 21 93 57 20 19 37 32 37 30 0 -3
10 7 22 23 13 16 28 34 34 39 31 26 131 178 164 250 70 152 100 268 107 418
10 225 -37 407 -148 574 -71 108 -111 152 -204 229 -74 61 -121 94 -134 94 -6
0 -14 6 -18 13 -19 31 -204 108 -314 131 -81 17 -261 32 -269 23z"/>
<path d="M1165 2359 c-16 -6 -58 -14 -91 -18 -63 -9 -176 -57 -222 -95 -38
-30 -162 -154 -162 -161 0 -3 -17 -29 -38 -58 -58 -80 -142 -262 -157 -342
-28 -146 -33 -270 -15 -385 14 -88 55 -222 91 -298 16 -35 29 -65 29 -68 0 -3
16 -30 35 -60 19 -30 35 -58 35 -62 0 -12 180 -202 191 -202 8 0 35 -20 64
-47 18 -17 219 -113 237 -113 8 0 19 -5 26 -12 7 -7 12 -9 12 -6 0 3 24 0 53
-8 238 -64 509 -17 693 119 34 25 77 53 95 62 84 44 252 278 304 424 29 84 36
160 20 236 -29 135 -98 232 -184 255 -84 22 -197 -27 -297 -132 -82 -85 -108
-135 -138 -258 -29 -119 -85 -238 -150 -322 -106 -134 -346 -175 -517 -88 -62
32 -141 116 -173 184 -99 208 -22 467 234 792 104 133 140 192 140 232 0 71
-60 132 -130 132 -128 0 -367 -288 -448 -540 -66 -204 -55 -378 34 -559 63
-127 179 -247 300 -309 175 -90 359 -101 510 -31 111 51 225 207 315 430 55
137 87 179 159 211 89 39 151 23 188 -47 26 -50 20 -213 -11 -297 -47 -128
-124 -230 -251 -330 -308 -244 -832 -186 -1138 124 -125 127 -217 296 -269
495 -26 100 -36 304 -20 399 47 271 234 555 429 652 72 35 81 37 172 37 86 0
101 -3 162 -32 117 -55 198 -151 198 -234 0 -43 -26 -92 -101 -190 -222 -292
-343 -554 -325 -705 13 -114 71 -217 136 -244 64 -27 162 4 231 72 88 87 111
189 86 378 -24 174 -23 224 5 250 27 25 49 25 123 -1 52 -18 77 -21 191 -17
123 3 134 5 196 36 84 41 118 87 125 169 11 122 -50 269 -156 374 -51 50 -79
69 -115 79 -42 11 -52 11 -75 -2 -14 -9 -35 -33 -45 -53 -17 -34 -18 -41 -5
-64 8 -14 41 -42 74 -61 112 -66 185 -159 185 -237 0 -77 -67 -122 -181 -123
-83 0 -157 34 -191 88 -21 34 -23 49 -23 172 0 130 -1 137 -30 193 -77 152
-285 259 -420 216z m159 -51 c-4 -7 -3 -8 5 -4 17 11 94 -32 150 -83 79 -73
96 -120 97 -277 0 -123 2 -133 27 -177 60 -102 208 -147 329 -100 129 49 153
154 64 283 -37 53 -40 56 -133 121 -74 50 -85 69 -60 101 31 41 92 21 165 -53
33 -33 65 -72 73 -87 8 -15 17 -29 20 -32 3 -3 16 -36 27 -74 49 -156 13 -254
-108 -295 -53 -18 -256 -25 -310 -11 -71 19 -129 23 -158 11 -52 -22 -78 -102
-60 -181 14 -62 23 -153 23 -240 -1 -132 -47 -215 -150 -269 -65 -34 -126 -26
-167 23 -24 29 -56 115 -63 173 -15 114 52 290 191 498 43 65 89 134 101 154
13 20 23 32 23 26 0 -25 100 153 105 189 14 91 -65 212 -182 278 -29 17 -53
32 -53 34 0 2 12 4 26 4 16 0 23 -4 18 -12z m-107 -324 c20 -22 24 -34 20 -65
-5 -37 -18 -58 -147 -224 -95 -123 -214 -326 -225 -386 -2 -10 -6 -23 -10 -28
-24 -40 -34 -230 -15 -304 15 -56 71 -178 80 -172 4 2 7 -2 7 -10 0 -21 -3
-19 -45 23 -44 45 -106 136 -117 172 -4 14 -11 30 -16 35 -4 6 -17 42 -27 81
-42 150 -17 366 59 516 75 148 241 352 313 384 43 20 93 11 123 -22z m1008
-528 c55 -36 108 -169 108 -271 1 -67 -43 -214 -70 -237 -14 -11 -15 -9 -8 22
11 49 8 181 -5 229 -22 82 -85 128 -165 119 -104 -12 -204 -92 -236 -188 -27
-80 -119 -274 -148 -311 -94 -117 -118 -138 -210 -176 -44 -19 -72 -23 -145
-22 l-91 2 65 8 c91 12 200 54 251 97 24 20 46 41 47 45 2 4 14 20 27 35 55
65 131 251 151 370 11 64 115 203 184 245 19 11 37 24 40 27 4 5 73 28 105 35
18 3 75 -13 100 -29z"/>
</g>
</svg>
